<svg width="14" height="14" viewBox="0 0 14 14" fill="none" xmlns="http://www.w3.org/2000/svg">
<path fill-rule="evenodd" clip-rule="evenodd" d="M6.99781 0C3.13337 0 0 3.13337 0 6.99869C0 10.0905 2.00462 12.7138 4.78625 13.6395C5.13625 13.7034 5.2465 13.496 5.2465 13.3105C5.2465 13.1442 5.25 12.6796 5.2465 12.0956C3.30006 12.5186 2.89669 11.1738 2.89669 11.1738C2.57862 10.3653 2.12012 10.15 2.12012 10.15C1.48487 9.716 2.16781 9.72431 2.16781 9.72431C2.87 9.77375 3.24012 10.4457 3.24012 10.4457C3.86444 11.5146 4.87769 11.2057 5.27625 11.0272C5.34012 10.5748 5.52125 10.2664 5.72119 10.0914C4.16719 9.91462 2.53356 9.31437 2.53356 6.6325C2.53356 5.86819 2.80612 5.24388 3.25369 4.75475C3.1815 4.578 2.94087 3.86619 3.32237 2.90237C3.32237 2.90237 3.90994 2.71425 5.2465 3.62031C5.80475 3.465 6.40369 3.38756 6.99869 3.38494C7.59325 3.38756 8.19175 3.465 8.75087 3.62031C10.0874 2.71469 10.6741 2.90237 10.6741 2.90237C11.0556 3.86619 10.8154 4.578 10.7437 4.75475C11.1912 5.24388 11.4629 5.86819 11.4629 6.6325C11.4629 9.32137 9.82669 9.91287 8.26744 10.0857C8.51856 10.3022 8.7465 10.7223 8.7465 11.375C8.7465 12.25 8.7465 13.0821 8.7465 13.3122C8.7465 13.4995 8.85937 13.7064 9.21462 13.6386C11.9936 12.7116 13.9965 10.0896 13.9965 6.99869C13.9965 3.13337 10.8631 0 6.99781 0Z" fill="white"/>
</svg>
