<svg width="14" height="14" viewBox="0 0 14 14" fill="none" xmlns="http://www.w3.org/2000/svg">
<g clip-path="url(#clip0)">
<path fill-rule="evenodd" clip-rule="evenodd" d="M12.2895 0C13.2336 0 14 0.766445 14 1.71046V12.2895C14 13.2336 13.2336 14 12.2895 14H1.71046C0.766445 14 0 13.2336 0 12.2895V1.71046C0 0.766445 0.766418 0 1.71046 0H12.2895V0ZM4.38761 11.574V5.40206H2.33573V11.574H4.38761ZM11.7852 11.574V8.03466C11.7852 6.13884 10.7729 5.25692 9.42318 5.25692C8.33478 5.25692 7.84725 5.8555 7.57427 6.27591V5.40206H5.52292C5.55013 5.98123 5.52292 11.574 5.52292 11.574H7.57425V8.12716C7.57425 7.94265 7.58754 7.75824 7.64189 7.62636C7.78993 7.25791 8.12771 6.87622 8.69446 6.87622C9.43644 6.87622 9.73372 7.44242 9.73372 8.27176V11.574H11.7852V11.574ZM3.37553 2.42599C2.67351 2.42599 2.21484 2.88753 2.21484 3.49245C2.21484 4.08466 2.65956 4.55891 3.34838 4.55891H3.36161C4.07706 4.55891 4.52241 4.08466 4.52241 3.49245C4.50915 2.88837 4.07832 2.4273 3.37553 2.42599V2.42599Z" fill="white"/>
</g>
<defs>
<clipPath id="clip0">
<rect width="14" height="14" fill="white"/>
</clipPath>
</defs>
</svg>
